<mxfile host="app.diagrams.net" agent="Mozilla/5.0 (Windows NT 10.0; Win64; x64) AppleWebKit/537.36 (KHTML, like Gecko) Chrome/130.0.0.0 Safari/537.36" version="24.8.4">
  <diagram name="第 1 页" id="M0cewNZHd_xb_xDdoU0O">
    <mxGraphModel dx="548" dy="290" grid="1" gridSize="10" guides="1" tooltips="1" connect="1" arrows="1" fold="1" page="1" pageScale="1" pageWidth="827" pageHeight="1169" math="0" shadow="0">
      <root>
        <mxCell id="0" />
        <mxCell id="1" parent="0" />
        <mxCell id="O3aIUhmmaAKkpwL_BdE_-1" value="Actor" style="shape=umlActor;verticalLabelPosition=bottom;verticalAlign=top;html=1;" vertex="1" parent="1">
          <mxGeometry x="170" y="200" width="30" height="60" as="geometry" />
        </mxCell>
        <mxCell id="O3aIUhmmaAKkpwL_BdE_-7" value="OrderController" style="ellipse;shape=umlControl;whiteSpace=wrap;html=1;" vertex="1" parent="1">
          <mxGeometry x="150" y="410" width="70" height="80" as="geometry" />
        </mxCell>
        <mxCell id="O3aIUhmmaAKkpwL_BdE_-9" value="前台界面" style="whiteSpace=wrap;html=1;verticalAlign=top;" vertex="1" parent="1">
          <mxGeometry x="380" y="215" width="95" height="30" as="geometry" />
        </mxCell>
        <mxCell id="O3aIUhmmaAKkpwL_BdE_-12" value="3.调用Service" style="text;html=1;align=center;verticalAlign=middle;resizable=0;points=[];autosize=1;strokeColor=none;fillColor=none;" vertex="1" parent="1">
          <mxGeometry x="250" y="420" width="100" height="30" as="geometry" />
        </mxCell>
        <mxCell id="O3aIUhmmaAKkpwL_BdE_-14" value="OrderService" style="whiteSpace=wrap;html=1;" vertex="1" parent="1">
          <mxGeometry x="390" y="420" width="120" height="60" as="geometry" />
        </mxCell>
        <mxCell id="O3aIUhmmaAKkpwL_BdE_-17" value="4.返回结果" style="text;html=1;align=center;verticalAlign=middle;resizable=0;points=[];autosize=1;strokeColor=none;fillColor=none;" vertex="1" parent="1">
          <mxGeometry x="260" y="450" width="80" height="30" as="geometry" />
        </mxCell>
        <mxCell id="O3aIUhmmaAKkpwL_BdE_-20" value="" style="line;strokeWidth=1;fillColor=none;align=left;verticalAlign=middle;spacingTop=-1;spacingLeft=3;spacingRight=3;rotatable=0;labelPosition=right;points=[];portConstraint=eastwest;strokeColor=inherit;" vertex="1" parent="1">
          <mxGeometry x="165" y="416" width="40" height="8" as="geometry" />
        </mxCell>
        <mxCell id="O3aIUhmmaAKkpwL_BdE_-25" value="" style="endArrow=none;html=1;rounded=0;entryX=0;entryY=0.5;entryDx=0;entryDy=0;" edge="1" parent="1" target="O3aIUhmmaAKkpwL_BdE_-14">
          <mxGeometry width="50" height="50" relative="1" as="geometry">
            <mxPoint x="220" y="450" as="sourcePoint" />
            <mxPoint x="270" y="400" as="targetPoint" />
          </mxGeometry>
        </mxCell>
        <mxCell id="O3aIUhmmaAKkpwL_BdE_-26" value="" style="endArrow=none;html=1;rounded=0;entryX=0.25;entryY=1;entryDx=0;entryDy=0;" edge="1" parent="1" target="O3aIUhmmaAKkpwL_BdE_-9">
          <mxGeometry width="50" height="50" relative="1" as="geometry">
            <mxPoint x="210" y="430" as="sourcePoint" />
            <mxPoint x="260" y="380" as="targetPoint" />
          </mxGeometry>
        </mxCell>
        <mxCell id="O3aIUhmmaAKkpwL_BdE_-27" value="" style="endArrow=none;html=1;rounded=0;entryX=0;entryY=0.5;entryDx=0;entryDy=0;" edge="1" parent="1" source="O3aIUhmmaAKkpwL_BdE_-1" target="O3aIUhmmaAKkpwL_BdE_-9">
          <mxGeometry width="50" height="50" relative="1" as="geometry">
            <mxPoint x="200" y="240" as="sourcePoint" />
            <mxPoint x="250" y="190" as="targetPoint" />
          </mxGeometry>
        </mxCell>
        <mxCell id="O3aIUhmmaAKkpwL_BdE_-28" value="1.查看购物车" style="text;html=1;align=center;verticalAlign=middle;resizable=0;points=[];autosize=1;strokeColor=none;fillColor=none;" vertex="1" parent="1">
          <mxGeometry x="240" y="230" width="90" height="30" as="geometry" />
        </mxCell>
        <mxCell id="O3aIUhmmaAKkpwL_BdE_-29" value="5.返回购物车数据" style="text;html=1;align=center;verticalAlign=middle;resizable=0;points=[];autosize=1;strokeColor=none;fillColor=none;rotation=-45;" vertex="1" parent="1">
          <mxGeometry x="270" y="328" width="120" height="30" as="geometry" />
        </mxCell>
        <mxCell id="O3aIUhmmaAKkpwL_BdE_-30" value="" style="endArrow=classic;html=1;rounded=0;" edge="1" parent="1">
          <mxGeometry width="50" height="50" relative="1" as="geometry">
            <mxPoint x="240" y="259.31" as="sourcePoint" />
            <mxPoint x="330" y="259.31" as="targetPoint" />
          </mxGeometry>
        </mxCell>
        <mxCell id="O3aIUhmmaAKkpwL_BdE_-31" value="" style="endArrow=classic;html=1;rounded=0;" edge="1" parent="1">
          <mxGeometry width="50" height="50" relative="1" as="geometry">
            <mxPoint x="290" y="424" as="sourcePoint" />
            <mxPoint x="350" y="424" as="targetPoint" />
          </mxGeometry>
        </mxCell>
        <mxCell id="O3aIUhmmaAKkpwL_BdE_-32" value="" style="endArrow=classic;html=1;rounded=0;" edge="1" parent="1">
          <mxGeometry width="50" height="50" relative="1" as="geometry">
            <mxPoint x="310" y="479.31" as="sourcePoint" />
            <mxPoint x="260" y="479.31" as="targetPoint" />
            <Array as="points">
              <mxPoint x="340" y="479.31" />
            </Array>
          </mxGeometry>
        </mxCell>
        <mxCell id="O3aIUhmmaAKkpwL_BdE_-35" value="" style="endArrow=classic;html=1;rounded=0;" edge="1" parent="1">
          <mxGeometry width="50" height="50" relative="1" as="geometry">
            <mxPoint x="320" y="380" as="sourcePoint" />
            <mxPoint x="370" y="330" as="targetPoint" />
          </mxGeometry>
        </mxCell>
        <mxCell id="O3aIUhmmaAKkpwL_BdE_-36" value="6.展示购物车数据" style="text;html=1;align=center;verticalAlign=middle;resizable=0;points=[];autosize=1;strokeColor=none;fillColor=none;rotation=0;" vertex="1" parent="1">
          <mxGeometry x="240" y="200" width="120" height="30" as="geometry" />
        </mxCell>
        <mxCell id="O3aIUhmmaAKkpwL_BdE_-37" value="" style="endArrow=classic;html=1;rounded=0;" edge="1" parent="1">
          <mxGeometry width="50" height="50" relative="1" as="geometry">
            <mxPoint x="340" y="199.31" as="sourcePoint" />
            <mxPoint x="260" y="199.31" as="targetPoint" />
          </mxGeometry>
        </mxCell>
        <mxCell id="O3aIUhmmaAKkpwL_BdE_-38" value="2.发送查看请求" style="text;html=1;align=center;verticalAlign=middle;resizable=0;points=[];autosize=1;strokeColor=none;fillColor=none;rotation=-45;" vertex="1" parent="1">
          <mxGeometry x="235" y="310" width="110" height="30" as="geometry" />
        </mxCell>
      </root>
    </mxGraphModel>
  </diagram>
</mxfile>
